<?xml version="1.0" encoding="utf-8"?>
<!-- Generator: Adobe Illustrator 18.1.1, SVG Export Plug-In . SVG Version: 6.00 Build 0)  -->
<!DOCTYPE svg PUBLIC "-//W3C//DTD SVG 1.1//EN" "http://www.w3.org/Graphics/SVG/1.1/DTD/svg11.dtd">
<svg version="1.1" id="Layer_1" xmlns="http://www.w3.org/2000/svg" xmlns:xlink="http://www.w3.org/1999/xlink" x="0px" y="0px"
	 viewBox="0 0 22 22" enable-background="new 0 0 22 22" xml:space="preserve">
<g>
	<path fill="#96B711" d="M0,0v22h22V0H0z M18.7,6.1c-3.3,2.6-6.8,5.1-7.3,5.3c-0.6-0.1-4-2.7-7.2-5.3H18.7z M3.6,6.9
		C5.1,8,6.8,9.4,8.3,10.5l-4.6,4.7V6.9z M4.4,15.8l4.7-4.8c1.1,0.8,2,1.3,2.3,1.3c0.3,0,1.3-0.6,2.5-1.4l4.9,4.9H4.4z M19.6,15.3
		l-4.9-4.9c1.5-1.1,3.2-2.4,4.9-3.7V15.3z"/>
</g>
</svg>
