<?xml version="1.0" encoding="utf-8"?>
<!-- Generator: Adobe Illustrator 18.1.1, SVG Export Plug-In . SVG Version: 6.00 Build 0)  -->
<!DOCTYPE svg PUBLIC "-//W3C//DTD SVG 1.1//EN" "http://www.w3.org/Graphics/SVG/1.1/DTD/svg11.dtd">
<svg version="1.1" id="Layer_1" xmlns="http://www.w3.org/2000/svg" xmlns:xlink="http://www.w3.org/1999/xlink" x="0px" y="0px"
	 viewBox="0 0 22 22" enable-background="new 0 0 22 22" xml:space="preserve">
<g>
	<path fill="#96B711" d="M0,0v22h22V0H0z M11.1,3.8c0.2,0.2,0.3,0.4,0.5,0.6C11.8,4.7,11.9,5,12,5.3c0.1,0.3,0.1,0.7,0.1,1.1
		c0,0.8-0.2,1.4-0.5,1.9c-0.2,0.2-0.3,0.4-0.5,0.6c-0.2,0.2-0.4,0.4-0.6,0.6c-0.1,0.1-0.3,0.3-0.4,0.5c-0.1,0.2-0.2,0.4-0.2,0.6
		c0,0.2,0.1,0.4,0.2,0.6c0.1,0.1,0.2,0.3,0.3,0.4l0.7,0.6c0.5,0.4,0.9,0.8,1.2,1.3c0.3,0.5,0.5,1.1,0.5,1.8c0,1.1-0.5,2-1.4,2.8
		c-1,0.8-2.4,1.3-4.2,1.3c-1.5,0-2.7-0.3-3.4-1c-0.8-0.6-1.1-1.3-1.1-2.1c0-0.4,0.1-0.9,0.4-1.4c0.2-0.5,0.7-0.9,1.3-1.3
		c0.7-0.4,1.5-0.7,2.2-0.8c0.8-0.1,1.4-0.2,1.9-0.2c-0.2-0.2-0.3-0.4-0.4-0.7c-0.1-0.2-0.2-0.5-0.2-0.8c0-0.2,0-0.4,0.1-0.5
		c0-0.1,0.1-0.3,0.1-0.4c-0.2,0-0.5,0-0.7,0c-1.2,0-2.1-0.4-2.7-1.1c-0.6-0.7-1-1.5-1-2.3c0-1.1,0.5-2.1,1.4-2.9
		c0.6-0.5,1.3-0.8,1.9-1C7.8,2.7,8.4,2.7,9,2.7h4.4L12,3.4h-1.4C10.8,3.5,10.9,3.7,11.1,3.8z M19.3,6.2H17v2.3h-1.1V6.2h-2.3V5.1
		h2.3V2.8H17v2.3h2.3V6.2z"/>
	<path fill="#96B711" d="M8.8,3.8C8.5,3.5,8.1,3.4,7.6,3.4C7,3.4,6.5,3.6,6.1,4.1c-0.3,0.5-0.5,1-0.5,1.6c0,0.8,0.2,1.6,0.7,2.5
		c0.2,0.4,0.5,0.7,0.9,1C7.6,9.5,8,9.6,8.4,9.6C9,9.6,9.5,9.4,9.9,9c0.2-0.3,0.3-0.6,0.4-0.9c0-0.3,0-0.5,0-0.7
		c0-0.9-0.2-1.7-0.7-2.6C9.4,4.4,9.1,4,8.8,3.8z"/>
	<path fill="#96B711" d="M8.7,13.1c-0.1,0-0.4,0-0.9,0c-0.5,0.1-0.9,0.2-1.4,0.3c-0.1,0-0.3,0.1-0.5,0.2c-0.2,0.1-0.4,0.2-0.6,0.4
		c-0.2,0.2-0.4,0.4-0.5,0.7c-0.2,0.3-0.2,0.6-0.2,1c0,0.8,0.3,1.4,1,1.9c0.7,0.5,1.6,0.8,2.7,0.8c1,0,1.8-0.2,2.4-0.7
		c0.5-0.4,0.8-1,0.8-1.7c0-0.6-0.2-1-0.5-1.5c-0.4-0.4-1-0.9-1.8-1.4C9,13.1,8.8,13.1,8.7,13.1z"/>
</g>
</svg>
