<?xml version="1.0" encoding="utf-8"?>
<!-- Generator: Adobe Illustrator 18.1.1, SVG Export Plug-In . SVG Version: 6.00 Build 0)  -->
<!DOCTYPE svg PUBLIC "-//W3C//DTD SVG 1.1//EN" "http://www.w3.org/Graphics/SVG/1.1/DTD/svg11.dtd">
<svg version="1.1" id="Layer_1" xmlns="http://www.w3.org/2000/svg" xmlns:xlink="http://www.w3.org/1999/xlink" x="0px" y="0px"
	 viewBox="0 0 75 75" enable-background="new 0 0 75 75" xml:space="preserve">
<path fill="#CC3731" d="M29.8,12.9c-1.2-0.9-2.5-1.3-4.1-1.4c-2,0-3.7,0.9-5.1,2.5c-1.1,1.7-1.7,3.5-1.6,5.6c0,2.7,0.8,5.5,2.4,8.5
	c0.8,1.4,1.8,2.5,3,3.5c1.2,1,2.6,1.4,4.2,1.4c2-0.1,3.6-0.8,4.9-2.1c0.6-1,1-1.9,1.2-2.9c0.1-1,0.2-1.8,0.2-2.5c0-3-0.8-5.9-2.3-9
	C31.9,15,31,13.9,29.8,12.9z"/>
<path fill="#CC3731" d="M29.3,45c-0.4,0-1.4,0-2.9,0.1c-1.6,0.2-3.1,0.6-4.8,1.1c-0.4,0.1-0.9,0.4-1.6,0.7c-0.7,0.3-1.4,0.8-2.1,1.4
	c-0.7,0.6-1.3,1.4-1.8,2.3c-0.6,1-0.8,2.1-0.8,3.4c0,2.6,1.2,4.8,3.6,6.5c2.3,1.7,5.4,2.6,9.3,2.6c3.5-0.1,6.2-0.8,8.1-2.3
	c1.8-1.5,2.7-3.4,2.7-5.8c0-1.9-0.6-3.6-1.9-5c-1.3-1.3-3.4-3-6.2-4.9C30.5,45,29.9,45,29.3,45z"/>
<path fill="#CC3731" d="M-0.4,0v75.4H75V0H-0.4z M37.7,13.1c0.6,0.6,1.1,1.3,1.7,2.2c0.5,0.8,1,1.8,1.4,2.9c0.3,1.1,0.5,2.4,0.5,3.8
	c0,2.7-0.6,4.8-1.8,6.4c-0.6,0.8-1.2,1.5-1.8,2.2c-0.7,0.7-1.4,1.3-2.2,2c-0.4,0.5-0.9,1-1.2,1.6c-0.4,0.6-0.7,1.3-0.7,2.1
	c0,0.8,0.2,1.4,0.7,1.9c0.4,0.5,0.8,0.9,1.1,1.3l2.5,2.1c1.6,1.3,3,2.7,4.2,4.3c1.1,1.6,1.7,3.7,1.8,6.2c0,3.6-1.6,6.9-4.8,9.7
	c-3.3,2.9-8.1,4.4-14.4,4.5c-5.3,0-9.2-1.2-11.8-3.4c-2.6-2-3.9-4.5-3.9-7.3c0-1.4,0.4-2.9,1.3-4.6c0.8-1.7,2.3-3.2,4.5-4.5
	c2.4-1.4,5-2.3,7.7-2.8c2.7-0.4,4.9-0.6,6.6-0.7c-0.5-0.7-1-1.5-1.4-2.3c-0.5-0.8-0.7-1.7-0.7-2.8c0-0.7,0.1-1.2,0.3-1.7
	c0.2-0.5,0.3-0.9,0.5-1.3c-0.9,0.1-1.7,0.1-2.4,0.1c-4,0-7-1.3-9.1-3.8c-2.2-2.3-3.3-5-3.3-8c0-3.7,1.6-7,4.7-10
	c2.1-1.8,4.4-2.9,6.6-3.4c2.3-0.5,4.4-0.7,6.4-0.7h15l-4.6,2.7h-4.6C36.6,12.1,37.1,12.5,37.7,13.1z M65.7,21.1h-7.9V29H54v-7.9
	h-7.9v-3.8H54V9.4h3.8v7.9h7.9V21.1z"/>
</svg>
