<?xml version="1.0" encoding="utf-8"?>
<!-- Generator: Adobe Illustrator 18.1.1, SVG Export Plug-In . SVG Version: 6.00 Build 0)  -->
<!DOCTYPE svg PUBLIC "-//W3C//DTD SVG 1.1//EN" "http://www.w3.org/Graphics/SVG/1.1/DTD/svg11.dtd">
<svg version="1.1" id="Layer_1" xmlns="http://www.w3.org/2000/svg" xmlns:xlink="http://www.w3.org/1999/xlink" x="0px" y="0px"
	 viewBox="0 0 960 560" enable-background="new 0 0 960 560" xml:space="preserve">
<g>
	<path fill="#326699" d="M595.7,283c0,62-51.5,111.3-115,111.3s-115-50-115-111.3c0-11.2,1.5-21.7,4.5-32.1h-34.3v156.8
		c0,8.2,6.7,14.9,14.9,14.9h258.3c8.2,0,14.9-6.7,14.9-14.9V250.9h-32.9C594.2,261.3,595.7,272.5,595.7,283z"/>
	<path fill="#326699" d="M480,351.7c41.1,0,74.7-32.1,74.7-72.4c0-39.6-33.6-72.4-74.7-72.4s-74.7,32.1-74.7,72.4
		C406.1,318.8,438.9,351.7,480,351.7z"/>
	<path fill="#326699" d="M564.4,209.1h41.8c9,0,16.4-7.5,16.4-16.4v-39.6c0-9-7.5-16.4-16.4-16.4h-41.8c-9,0-16.4,7.5-16.4,16.4
		v39.6C547.9,201.6,555.4,209.1,564.4,209.1z"/>
	<path fill="#326699" d="M198.5-1.5v563h563v-563H198.5z M665.2,417.4c0,26.1-21.7,47.8-47.8,47.8H342.6
		c-26.1,0-47.8-21.7-47.8-47.8V142.6c0-26.1,21.7-47.8,47.8-47.8h275.5c26.1,0,47.8,21.7,47.8,47.8v274.8H665.2z"/>
</g>
</svg>
