<?xml version="1.0" encoding="utf-8"?>
<!-- Generator: Adobe Illustrator 18.1.1, SVG Export Plug-In . SVG Version: 6.00 Build 0)  -->
<!DOCTYPE svg PUBLIC "-//W3C//DTD SVG 1.1//EN" "http://www.w3.org/Graphics/SVG/1.1/DTD/svg11.dtd">
<svg version="1.1" id="Layer_1" xmlns="http://www.w3.org/2000/svg" xmlns:xlink="http://www.w3.org/1999/xlink" x="0px" y="0px"
	 viewBox="0 0 75 75" enable-background="new 0 0 75 75" xml:space="preserve">
<path fill="#CA2128" d="M-0.2-0.2v75.4h75.4V-0.2H-0.2z M37.5,64.8c-2.7,0-5.3-0.4-7.7-1.1c1-1.6,2.2-3.7,2.7-5.8
	c0.3-1.2,1.9-7.5,1.9-7.5c0.9,1.8,3.7,3.4,6.7,3.4c8.8,0,14.7-8,14.7-18.7c0-8.1-6.9-15.6-17.3-15.6c-13,0-19.5,9.3-19.5,17
	c0,4.7,1.8,8.9,5.6,10.4c0.6,0.3,1.2,0,1.4-0.7c0.1-0.5,0.4-1.7,0.6-2.2c0.2-0.7,0.1-0.9-0.4-1.5c-1.1-1.3-1.8-3-1.8-5.3
	c0-6.9,5.2-13.1,13.4-13.1c7.3,0,11.3,4.5,11.3,10.4c0,7.9-3.5,14.5-8.6,14.5c-2.8,0-5-2.4-4.3-5.2c0.8-3.5,2.4-7.2,2.4-9.7
	c0-2.2-1.2-4.1-3.7-4.1c-2.9,0-5.3,3-5.3,7.1c0,2.6,0.9,4.3,0.9,4.3S27.6,54,27,56.2c-0.5,2.1-0.5,4.4-0.5,6.3
	c-9.6-4.2-16.3-13.8-16.3-25c0-15.1,12.2-27.3,27.3-27.3c15.1,0,27.3,12.2,27.3,27.3C64.8,52.6,52.6,64.8,37.5,64.8z"/>
</svg>
