<?xml version="1.0" encoding="utf-8"?>
<!-- Generator: Adobe Illustrator 18.1.1, SVG Export Plug-In . SVG Version: 6.00 Build 0)  -->
<!DOCTYPE svg PUBLIC "-//W3C//DTD SVG 1.1//EN" "http://www.w3.org/Graphics/SVG/1.1/DTD/svg11.dtd">
<svg version="1.1" id="Layer_1" xmlns="http://www.w3.org/2000/svg" xmlns:xlink="http://www.w3.org/1999/xlink" x="0px" y="0px"
	 viewBox="0 0 22 22" enable-background="new 0 0 22 22" xml:space="preserve">
<g>
	<path fill="#96B711" d="M0,0V22H22V0H0z M16.9,8c0,0.1,0,0.3,0,0.4c0,4-3,8.6-8.6,8.6c-1.7,0-3.3-0.5-4.6-1.4c0.2,0,0.5,0,0.7,0
		c1.4,0,2.7-0.5,3.8-1.3c-1.3,0-2.4-0.9-2.8-2.1c0.2,0,0.4,0.1,0.6,0.1c0.3,0,0.5,0,0.8-0.1c-1.4-0.3-2.4-1.5-2.4-3v0
		c0.4,0.2,0.9,0.4,1.4,0.4C4.8,9.1,4.3,8.1,4.3,7.1c0-0.6,0.1-1.1,0.4-1.5c1.5,1.8,3.7,3,6.2,3.2c-0.1-0.2-0.1-0.5-0.1-0.7
		c0-1.7,1.4-3,3-3c0.9,0,1.7,0.4,2.2,1c0.7-0.1,1.3-0.4,1.9-0.7c-0.2,0.7-0.7,1.3-1.3,1.7c0.6-0.1,1.2-0.2,1.7-0.5
		C18,7,17.4,7.6,16.9,8z"/>
</g>
</svg>
