<?xml version="1.0" encoding="utf-8"?>
<!-- Generator: Adobe Illustrator 18.1.1, SVG Export Plug-In . SVG Version: 6.00 Build 0)  -->
<!DOCTYPE svg PUBLIC "-//W3C//DTD SVG 1.1//EN" "http://www.w3.org/Graphics/SVG/1.1/DTD/svg11.dtd">
<svg version="1.1" id="Layer_1" xmlns="http://www.w3.org/2000/svg" xmlns:xlink="http://www.w3.org/1999/xlink" x="0px" y="0px"
	 viewBox="0 0 75 75" enable-background="new 0 0 75 75" xml:space="preserve">
<path fill="#29A7DF" d="M-0.2-0.2v75.4h75.4V-0.2H-0.2z M57.5,27.3c0,0.4,0,0.9,0,1.3c0,13.6-10.4,29.3-29.3,29.3
	c-5.8,0-11.2-1.7-15.8-4.6c0.8,0.1,1.6,0.1,2.5,0.1c4.8,0,9.3-1.6,12.8-4.4c-4.5-0.1-8.3-3.1-9.6-7.2c0.6,0.1,1.3,0.2,1.9,0.2
	c0.9,0,1.9-0.1,2.7-0.4c-4.7-0.9-8.3-5.1-8.3-10.1v-0.1c1.4,0.8,3,1.2,4.7,1.3c-2.8-1.8-4.6-5-4.6-8.6c0-1.9,0.5-3.7,1.4-5.2
	c5.1,6.2,12.7,10.3,21.2,10.8c-0.2-0.8-0.3-1.5-0.3-2.3c0-5.7,4.6-10.3,10.3-10.3c3,0,5.6,1.3,7.5,3.3c2.3-0.5,4.6-1.3,6.5-2.5
	c-0.8,2.4-2.4,4.4-4.5,5.7c2.1-0.2,4.1-0.8,5.9-1.6C61.2,24,59.5,25.8,57.5,27.3z"/>
</svg>
